<?xml version="1.0" standalone="no"?>
<!DOCTYPE svg PUBLIC "-//W3C//DTD SVG 20010904//EN"
 "http://www.w3.org/TR/2001/REC-SVG-20010904/DTD/svg10.dtd">
<svg version="1.0" xmlns="http://www.w3.org/2000/svg" viewBox="0 0 17 17">
    <path d="M 3.5 0.5 L 10.5 0.5 L 11.5 1.5 L 12.5 2.5 L 13.5 3.5 L 13.5 16.5 L 3.5 16.5 L 3.5 0.5 Z" fill="white" />

    <path d="M 4 2 L 12 2 L 13 3 L 4 3 L 4 2 Z" fill="#2eb800" />

    <path d="M 4 6 L 13 6 L 13 7 L 4 7 L 4 6 Z" fill="#11afcf" />
    <path d="M 4 10 L 13 10 L 13 11 L 4 11 L 4 10 Z" fill="#f2b818" />
    <path d="M 4 14 L 13 14 L 13 15 L 4 15 L 4 14 Z" fill="#ff3d3d" />

    <path d="M 3.5 0.5 L 10.5 0.5 L 11.5 1.5 L 12.5 2.5 L 13.5 3.5 L 13.5 16.5 L 3.5 16.5 L 3.5 0.5 Z" fill="transparent" stroke-width="1" stroke="#d6d6d6" />
</svg>
